<?xml version="1.0" standalone="no"?>
<!DOCTYPE svg PUBLIC "-//W3C//DTD SVG 20010904//EN"
 "http://www.w3.org/TR/2001/REC-SVG-20010904/DTD/svg10.dtd">
<svg version="1.0" xmlns="http://www.w3.org/2000/svg"
 width="74.000000pt" height="71.000000pt" viewBox="0 0 74.000000 71.000000"
 preserveAspectRatio="xMidYMid meet">

<g transform="translate(0.000000,71.000000) scale(0.100000,-0.100000)"
fill="#000000" stroke="none">
<path d="M285 662 c-22 -8 -65 -31 -95 -51 -47 -31 -61 -47 -93 -113 -34 -68
-38 -84 -38 -151 0 -42 4 -84 9 -94 5 -10 17 -35 26 -56 35 -82 157 -177 227
-177 20 0 28 6 33 25 10 38 147 275 160 275 6 0 34 -42 62 -93 l52 -92 -25
-27 c-32 -34 -110 -69 -188 -85 l-60 -12 64 5 c123 10 238 96 283 210 30 75
27 178 -6 251 -73 158 -262 244 -411 185z m148 2 c10 -10 -150 -286 -167 -288
-5 -1 -13 6 -17 14 -5 8 -27 45 -49 83 -22 37 -40 73 -40 80 0 15 30 44 73 70
46 29 184 57 200 41z m126 -49 c43 -27 80 -67 110 -117 l23 -38 -171 0 c-94 0
-171 3 -171 6 0 5 71 140 93 175 13 20 61 9 116 -26z m-379 -137 c18 -35 52
-92 75 -128 68 -107 72 -100 -59 -100 l-114 0 -6 31 c-9 47 -7 109 5 154 12
44 46 105 58 105 5 0 23 -28 41 -62z m298 -88 l25 -45 -29 -47 -29 -48 -58 0
c-54 0 -58 2 -77 33 -33 53 -34 71 -5 116 l26 42 61 -3 c61 -3 61 -3 86 -48z
m217 40 c14 -23 17 -113 5 -157 -13 -49 -49 -123 -59 -123 -12 0 -161 259
-161 280 0 13 207 13 215 0z m-269 -217 c-8 -20 -106 -183 -110 -183 -18 0
-90 39 -125 68 -42 34 -101 106 -101 124 0 4 77 8 171 8 155 0 171 -2 165 -17z"/>
</g>
</svg>
